<svg width="40.000000" height="40.000000" viewBox="0 0 40 40" fill="none" xmlns="http://www.w3.org/2000/svg" xmlns:xlink="http://www.w3.org/1999/xlink">
	<desc>
			Created with Pixso.
	</desc>
	<defs>
		<clipPath id="clip1_1755">
			<rect id="Iconsax/Linear/facebook" rx="0.000000" width="38.030769" height="38.030769" transform="translate(0.984615 0.984615)" fill="white" fill-opacity="0"/>
		</clipPath>
	</defs>
	<rect id="Iconsax/Linear/facebook" rx="0.000000" width="38.030769" height="38.030769" transform="translate(0.984615 0.984615)" fill="#FFFFFF" fill-opacity="0"/>
	<g clip-path="url(#clip1_1755)">
		<path id="Vector" d="M23.33 20.33L27.66 20.33C28 20.33 28.16 20.66 28.16 21L27.5 24.16C27.5 24.33 27.16 24.5 27 24.5L23.33 24.5L23.33 36.66L18.33 36.66L18.33 24.66L15.5 24.66C15.16 24.66 15 24.5 15 24.16L15 21C15 20.66 15.16 20.5 15.5 20.5L18.33 20.5L18.33 15C18.33 12.16 20.5 10 23.33 10L27.83 10C28.16 10 28.33 10.16 28.33 10.5L28.33 14.5C28.33 14.83 28.16 15 27.83 15L23.83 15C23.5 15 23.33 15.16 23.33 15.5L23.33 20.33Z" stroke="#FFFFFF" stroke-opacity="1.000000" stroke-width="2.953846"/>
		<path id="Vector" d="M15 36.66C6.66 36.66 3.33 33.33 3.33 25L3.33 15C3.33 6.66 6.66 3.33 15 3.33L25 3.33C33.33 3.33 36.66 6.66 36.66 15L36.66 25C36.66 33.33 33.33 36.66 25 36.66L15 36.66Z" stroke="#FFFFFF" stroke-opacity="1.000000" stroke-width="2.953846" stroke-linejoin="round"/>
	</g>
</svg>
