<svg width="41.968750" height="41.969238" viewBox="0 0 41.9688 41.9692" fill="none" xmlns="http://www.w3.org/2000/svg" xmlns:xlink="http://www.w3.org/1999/xlink">
	<desc>
			Created with Pixso.
	</desc>
	<defs/>
	<rect id="fontisto:telegram" rx="0.000000" width="38.030769" height="38.030769" transform="translate(1.968990 1.969234)" fill="#FFFFFF" fill-opacity="0"/>
	<path id="Vector" d="M0.98 20.98C0.98 32.02 9.93 40.98 20.98 40.98C32.02 40.98 40.98 32.02 40.98 20.98C40.98 9.93 32.02 0.98 20.98 0.98C9.93 0.98 0.98 9.93 0.98 20.98ZM27.52 30.15C27.28 31.24 26.62 31.51 25.71 30.99L20.71 27.31L18.3 29.63C18.18 29.79 18.03 29.91 17.86 30C17.69 30.08 17.5 30.13 17.3 30.13L17.29 30.13L17.65 25.04L26.92 16.67C27.32 16.31 26.83 16.11 26.29 16.46L14.85 23.67L9.91 22.13C8.85 21.8 8.82 21.07 10.14 20.54L29.41 13.11C30.31 12.79 30.94 13.67 30.76 14.88L30.8 14.68L27.52 30.15Z" stroke="#FFFFFF" stroke-opacity="1.000000" stroke-width="1.969231"/>
</svg>
