<svg width="40.000000" height="34.000000" viewBox="0 0 40 34" fill="none" xmlns="http://www.w3.org/2000/svg" xmlns:xlink="http://www.w3.org/1999/xlink">
	<desc>
			Created with Pixso.
	</desc>
	<defs>
		<clipPath id="clip1_1759">
			<rect id="Iconsax/Linear/youtube" rx="0.000000" width="38.030769" height="32.030769" transform="translate(0.984615 0.984615)" fill="white" fill-opacity="0"/>
		</clipPath>
	</defs>
	<rect id="Iconsax/Linear/youtube" rx="0.000000" width="38.030769" height="32.030769" transform="translate(0.984615 0.984615)" fill="#FFFFFF" fill-opacity="0"/>
	<g clip-path="url(#clip1_1759)">
		<path id="Vector" d="M10.9 32.11C5.45 32.11 1.81 28.33 1.81 22.66L1.81 11.33C1.81 5.66 5.45 1.88 10.9 1.88L29.09 1.88C34.54 1.88 38.18 5.66 38.18 11.33L38.18 22.66C38.18 28.33 34.54 32.11 29.09 32.11L10.9 32.11Z" stroke="#FFFFFF" stroke-opacity="1.000000" stroke-width="2.953846" stroke-linejoin="round"/>
		<path id="Vector" d="M23.45 15.11C25.09 16.24 25.09 17.94 23.45 19.07L18.9 21.91C17.09 23.04 15.63 22.09 15.63 20.02L15.63 14.35C15.63 11.89 17.09 11.14 18.9 12.27L23.45 15.11Z" stroke="#FFFFFF" stroke-opacity="1.000000" stroke-width="2.953846" stroke-linejoin="round"/>
	</g>
</svg>
