<svg width="64.000000" height="62.000000" viewBox="0 0 64 62" fill="none" xmlns="http://www.w3.org/2000/svg" xmlns:xlink="http://www.w3.org/1999/xlink">
	<desc>
			Created with Pixso.
	</desc>
	<defs>
		<filter id="filter_1_2080_dd" x="0.000000" y="0.000000" width="64.000000" height="62.000000" filterUnits="userSpaceOnUse" color-interpolation-filters="sRGB">
			<feFlood flood-opacity="0" result="BackgroundImageFix"/>
			<feColorMatrix in="SourceAlpha" type="matrix" values="0 0 0 0 0 0 0 0 0 0 0 0 0 0 0 0 0 0 127 0" result="hardAlpha"/>
			<feOffset dx="2" dy="2"/>
			<feGaussianBlur stdDeviation="3.33333"/>
			<feComposite in2="hardAlpha" operator="out" k2="-1" k3="1"/>
			<feColorMatrix type="matrix" values="0 0 0 0 0 0 0 0 0 0 0 0 0 0 0 0 0 0 0.15 0"/>
			<feBlend mode="normal" in2="BackgroundImageFix" result="effect_dropShadow_1"/>
			<feBlend mode="normal" in="SourceGraphic" in2="effect_dropShadow_1" result="shape"/>
		</filter>
		<linearGradient x1="8.283489" y1="41.103653" x2="94.718689" y2="-7.070824" id="paint_linear_1_2082_0" gradientUnits="userSpaceOnUse">
			<stop stop-color="#0067AF"/>
			<stop offset="0.330000" stop-color="#5EF9F6"/>
			<stop offset="0.490000" stop-color="#FCE2A6"/>
			<stop offset="0.700000" stop-color="#F8BE3B"/>
			<stop offset="1.000000" stop-color="#6E3C1B"/>
		</linearGradient>
		<linearGradient x1="-3.392227" y1="57.823654" x2="129.513733" y2="-14.682739" id="paint_linear_1_2084_0" gradientUnits="userSpaceOnUse">
			<stop stop-color="#0067AF"/>
			<stop offset="0.330000" stop-color="#5EF9F6"/>
			<stop offset="0.490000" stop-color="#FCE2A6"/>
			<stop offset="0.700000" stop-color="#F8BE3B"/>
			<stop offset="1.000000" stop-color="#6E3C1B"/>
		</linearGradient>
	</defs>
	<g filter="url(#filter_1_2080_dd)">
		<mask id="mask1_2081" mask-type="alpha" maskUnits="userSpaceOnUse" x="8.000000" y="8.000000" width="44.000000" height="42.000000">
			<path id="Vector" d="M34.64 24.36C32.09 20.77 29.35 17.93 26.3 14.55L8 23.97L8 26.08L26.09 17.35L34.63 25.74L34.64 24.36L34.64 24.36ZM34.64 29.3C32.09 26.09 29.35 23.55 26.3 20.53L8 28.95L8 30.83L26.09 23.03L34.63 30.53L34.64 29.3ZM34.64 34.24C32.09 31.44 29.35 29.22 26.3 26.59L8 33.94L8 35.58L26.09 28.77L34.63 35.32L34.64 34.24ZM34.64 38.95C32.09 36.05 29.35 33.75 26.3 31.02L8 38.63L8 40.33C9.66 39.68 15.69 37.33 26.09 33.28L34.63 40.06L34.64 38.95ZM34.64 43.92C32.09 41.47 29.35 39.53 26.3 37.23L8 43.65L8 45.09L26.09 39.14L34.63 44.86L34.64 43.92ZM34.64 48.99C32.09 47.22 29.35 45.82 26.3 44.15L8 48.8L8 49.84L26.09 45.53L34.63 49.67L34.64 48.99ZM35.87 32.63L46.81 26.63L51.97 32.4C51.97 32.4 51.98 31.33 52 29.18C51.95 29.2 51.56 28.89 50.84 28.26L50.84 29.62L46.94 24.71L35.87 31.18L35.87 32.63ZM51.98 34.6C50.44 32.43 48.78 30.71 46.94 28.67L35.87 34.36L35.87 35.64L46.81 30.36L51.97 35.43L51.98 34.6ZM51.98 37.58C50.44 35.64 48.78 34.11 46.94 32.28L35.87 37.37L35.87 38.51L46.81 33.8L51.97 38.33L51.98 37.58ZM51.98 40.57C50.44 38.88 48.78 37.54 46.94 35.94L35.87 40.39L35.87 41.38L46.81 37.26L51.97 41.22L51.98 40.57ZM51.98 43.41C50.44 41.66 48.78 40.27 46.94 38.62L35.87 43.22L35.87 44.25L46.81 39.99L51.97 44.09L51.98 43.41ZM51.98 46.41C50.44 44.94 48.78 43.77 46.94 42.37L35.87 46.26L35.87 47.12L46.81 43.53L51.97 46.99C51.97 46.99 51.97 46.8 51.98 46.42L51.98 46.41ZM51.98 49.48C50.44 48.41 48.78 47.56 46.94 46.56L35.87 49.37L35.87 50L46.81 47.39L51.97 49.9L51.98 49.48ZM8 21.1L26.09 11.18L34.63 20.72L34.67 15.41C34.6 15.44 33.96 14.93 32.75 13.88L32.75 16.13L26.3 8L8 18.71L8 21.1Z" fill="url(#paint_linear_1_2082_0)" fill-opacity="0" fill-rule="nonzero"/>
			<path id="Vector" d="M34.64 24.36C32.09 20.77 29.35 17.93 26.3 14.55L8 23.97L8 26.08L26.09 17.35L34.63 25.74L34.64 24.36L34.64 24.36ZM34.64 29.3C32.09 26.09 29.35 23.55 26.3 20.53L8 28.95L8 30.83L26.09 23.03L34.63 30.53L34.64 29.3ZM34.64 34.24C32.09 31.44 29.35 29.22 26.3 26.59L8 33.94L8 35.58L26.09 28.77L34.63 35.32L34.64 34.24ZM34.64 38.95C32.09 36.05 29.35 33.75 26.3 31.02L8 38.63L8 40.33C9.66 39.68 15.69 37.33 26.09 33.28L34.63 40.06L34.64 38.95ZM34.64 43.92C32.09 41.47 29.35 39.53 26.3 37.23L8 43.65L8 45.09L26.09 39.14L34.63 44.86L34.64 43.92ZM34.64 48.99C32.09 47.22 29.35 45.82 26.3 44.15L8 48.8L8 49.84L26.09 45.53L34.63 49.67L34.64 48.99ZM35.87 32.63L46.81 26.63L51.97 32.4C51.97 32.4 51.98 31.33 52 29.18C51.95 29.2 51.56 28.89 50.84 28.26L50.84 29.62L46.94 24.71L35.87 31.18L35.87 32.63ZM51.98 34.6C50.44 32.43 48.78 30.71 46.94 28.67L35.87 34.36L35.87 35.64L46.81 30.36L51.97 35.43L51.98 34.6ZM51.98 37.58C50.44 35.64 48.78 34.11 46.94 32.28L35.87 37.37L35.87 38.51L46.81 33.8L51.97 38.33L51.98 37.58ZM51.98 40.57C50.44 38.88 48.78 37.54 46.94 35.94L35.87 40.39L35.87 41.38L46.81 37.26L51.97 41.22L51.98 40.57ZM51.98 43.41C50.44 41.66 48.78 40.27 46.94 38.62L35.87 43.22L35.87 44.25L46.81 39.99L51.97 44.09L51.98 43.41ZM51.98 46.41C50.44 44.94 48.78 43.77 46.94 42.37L35.87 46.26L35.87 47.12L46.81 43.53L51.97 46.99C51.97 46.99 51.97 46.8 51.98 46.42L51.98 46.41ZM51.98 49.48C50.44 48.41 48.78 47.56 46.94 46.56L35.87 49.37L35.87 50L46.81 47.39L51.97 49.9L51.98 49.48ZM8 21.1L26.09 11.18L34.63 20.72L34.67 15.41C34.6 15.44 33.96 14.93 32.75 13.88L32.75 16.13L26.3 8L8 18.71L8 21.1Z" fill="#825808" fill-opacity="1.000000" fill-rule="nonzero"/>
		</mask>
		<g mask="url(#mask1_2081)">
			<path id="Vector" d="M-3.83 8L63.82 8L63.82 71.21L-3.83 71.21L-3.83 8Z" fill="url(#paint_linear_1_2084_0)" fill-opacity="0" fill-rule="evenodd"/>
			<path id="Vector" d="M-3.83 8L63.82 8L63.82 71.21L-3.83 71.21L-3.83 8Z" fill="#825808" fill-opacity="1.000000" fill-rule="evenodd"/>
		</g>
	</g>
</svg>
